<svg xmlns="http://www.w3.org/2000/svg" viewBox="22.4 8.3 173.8 173.8" fill="none">
<path d="M83.6,114.7 L85.7,116.3 L87.8,117.9 L89.9,119.5 L92.1,121.0 L94.2,122.5 L96.3,124.0 L98.5,125.4 L100.7,126.9 L102.8,128.3 L105.0,129.6 L107.1,130.9 L109.2,132.2 L111.4,133.5 L113.5,134.7 L115.6,135.8 L117.6,136.9 L119.7,138.0 L121.7,139.0 L123.7,140.0 L125.7,141.0 L127.6,141.9 L129.6,142.7 L131.4,143.5 L133.3,144.2 L135.1,144.9 L136.8,145.5 L138.5,146.1 L140.2,146.6 L141.8,147.1 L143.4,147.5 L144.9,147.8 L146.4,148.1" stroke="#cc8090" stroke-width="5.4" fill="none" stroke-linecap="round" opacity="1"/>
    <path d="M83.6,114.7 L82.8,112.2 L82.1,109.7 L81.3,107.2 L80.6,104.7 L79.9,102.2 L79.2,99.6 L78.6,97.1 L78.0,94.6 L77.4,92.0 L76.8,89.5 L76.3,87.0 L75.8,84.5 L75.3,82.0 L74.8,79.6 L74.4,77.2 L74.0,74.8 L73.6,72.4 L73.3,70.1 L73.0,67.8 L72.8,65.5 L72.5,63.3 L72.3,61.1 L72.2,59.0 L72.0,56.9 L71.9,54.9 L71.9,52.9 L71.8,51.0 L71.8,49.1 L71.9,47.3 L71.9,45.6 L72.0,43.9 L72.2,42.3" stroke="#cc8090" stroke-width="5.4" fill="none" stroke-linecap="round" opacity="1"/>
    <path d="M83.6,114.7 L85.7,113.3 L87.8,111.9 L89.9,110.4 L92.1,108.9 L94.2,107.4 L96.3,105.9 L98.5,104.4 L100.7,102.9 L102.8,101.4 L105.0,99.9 L107.1,98.4 L109.2,96.9 L111.4,95.4 L113.5,93.9 L115.6,92.4 L117.6,90.9 L119.7,89.4 L121.7,88.0 L123.7,86.5 L125.7,85.1 L127.6,83.7 L129.6,82.3 L131.4,80.9 L133.3,79.6 L135.1,78.2 L136.8,76.9 L138.5,75.7 L140.2,74.4 L141.8,73.2 L143.4,72.0 L144.9,70.9 L146.4,69.8" stroke="#cc8090" stroke-width="5.4" fill="none" stroke-linecap="round" opacity="1"/>
    <path d="M146.4,69.8 L147.3,72.2 L148.2,74.6 L149.1,77.1 L149.9,79.6 L150.6,82.1 L151.3,84.6 L151.9,87.2 L152.4,89.8 L152.9,92.3 L153.3,94.9 L153.7,97.5 L154.0,100.1 L154.2,102.7 L154.4,105.3 L154.5,107.9 L154.5,110.5 L154.5,113.1 L154.4,115.6 L154.2,118.2 L154.0,120.7 L153.7,123.2 L153.3,125.6 L152.9,128.1 L152.4,130.5 L151.9,132.8 L151.3,135.2 L150.6,137.4 L149.9,139.7 L149.1,141.9 L148.2,144.0 L147.3,146.1 L146.4,148.1" stroke="#cc8090" stroke-width="5.4" fill="none" stroke-linecap="round" opacity="1"/>
    <path d="M146.4,69.8 L144.5,68.1 L142.5,66.4 L140.5,64.8 L138.4,63.3 L136.3,61.7 L134.2,60.3 L132.0,58.8 L129.8,57.4 L127.5,56.1 L125.2,54.8 L122.9,53.6 L120.5,52.4 L118.2,51.3 L115.8,50.3 L113.3,49.3 L110.9,48.3 L108.4,47.5 L106.0,46.7 L103.5,45.9 L101.1,45.2 L98.6,44.6 L96.1,44.1 L93.7,43.6 L91.2,43.2 L88.7,42.8 L86.3,42.6 L83.9,42.3 L81.5,42.2 L79.1,42.1 L76.8,42.1 L74.5,42.2 L72.2,42.3" stroke="#cc8090" stroke-width="5.4" fill="none" stroke-linecap="round" opacity="1"/>

  <circle cx="83.6" cy="114.7" r="16" fill="#1a1216" stroke="#cc8090" stroke-width="5.5"/>
  <circle cx="83.6" cy="114.7" r="5.6" fill="#cc8090"/>
  <circle cx="146.4" cy="69.8" r="16" fill="#1a1216" stroke="#cc8090" stroke-width="5.5"/>
  <circle cx="146.4" cy="69.8" r="5.6" fill="#cc8090"/>
  <circle cx="72.2" cy="42.3" r="16" fill="#1a1216" stroke="#cc8090" stroke-width="5.5"/>
  <circle cx="72.2" cy="42.3" r="5.6" fill="#cc8090"/>
  <circle cx="146.4" cy="148.1" r="16" fill="#1a1216" stroke="#cc8090" stroke-width="5.5"/>
  <circle cx="146.4" cy="148.1" r="5.6" fill="#cc8090"/>
</svg>