<svg xmlns="http://www.w3.org/2000/svg" viewBox="0 0 200 200" fill="none">
  <defs>
    <pattern id="eng" x="0" y="0" width="200" height="3.5" patternUnits="userSpaceOnUse">
      <line x1="0" y1="1.75" x2="200" y2="1.75" stroke="#cc8090" stroke-width="0.5"/>
    </pattern>
    <clipPath id="sc">
      <circle cx="100" cy="100" r="76"/>
    </clipPath>
  </defs>
  <g clip-path="url(#sc)">
    <rect x="0" y="0" width="200" height="200" fill="url(#eng)" opacity="0.1"/>
  </g>
  <circle cx="100" cy="100" r="76" stroke="#cc8090" stroke-width="1.5" fill="none" opacity="0.6"/>
  <path d="M72.2,42.3 L72.0,44.5 L71.9,46.8 L71.8,49.1 L71.8,51.6 L71.9,54.2 L72.0,56.9 L72.2,59.7 L72.5,62.6 L72.8,65.5 L73.1,68.5 L73.5,71.6 L74.0,74.8 L74.5,78.0 L75.1,81.2 L75.8,84.5 L76.5,87.8 L77.2,91.2 L78.0,94.6 L78.8,97.9 L79.7,101.3 L80.6,104.7 L81.6,108.1 L82.6,111.4 L83.6,114.7" stroke="#cc8090" stroke-width="0.8" fill="none" stroke-linecap="round" opacity="0.5"/>
    <path d="M146.4,69.8 L144.4,71.3 L142.4,72.8 L140.2,74.4 L138.0,76.1 L135.7,77.8 L133.3,79.6 L130.8,81.4 L128.3,83.2 L125.7,85.1 L123.1,87.0 L120.4,88.9 L117.6,90.9 L114.9,92.9 L112.1,94.9 L109.2,96.9 L106.4,98.9 L103.5,100.9 L100.7,102.9 L97.8,104.9 L94.9,106.9 L92.1,108.9 L89.2,110.9 L86.4,112.8 L83.6,114.7" stroke="#cc8090" stroke-width="0.8" fill="none" stroke-linecap="round" opacity="0.5"/>
    <path d="M72.2,42.3 L75.2,42.2 L78.3,42.1 L81.5,42.2 L84.7,42.4 L87.9,42.7 L91.2,43.2 L94.5,43.7 L97.8,44.4 L101.1,45.2 L104.3,46.2 L107.6,47.2 L110.9,48.3 L114.1,49.6 L117.4,51.0 L120.5,52.4 L123.7,54.0 L126.7,55.7 L129.8,57.4 L132.7,59.3 L135.6,61.2 L138.4,63.3 L141.2,65.4 L143.8,67.5 L146.4,69.8" stroke="#cc8090" stroke-width="0.8" fill="none" stroke-linecap="round" opacity="0.5"/>
    <path d="M127.8,30.9 L129.6,31.1 L131.2,31.3 L132.8,31.7 L134.3,32.3 L135.8,32.9" stroke="#cc8090" stroke-width="0.5599999999999999" fill="none" stroke-linecap="round" opacity="0.12"/>
    <path d="M135.8,32.9 L137.1,33.8 L138.4,34.8 L139.6,35.9 L140.8,37.1 L141.8,38.5 L142.8,40.0 L143.6,41.7 L144.4,43.4 L145.1,45.3 L145.6,47.3 L146.1,49.4 L146.5,51.6 L146.8,54.0 L147.0,56.4 L147.0,58.9 L147.0,61.5 L146.9,64.2 L146.7,67.0 L146.4,69.8" stroke="#cc8090" stroke-width="0.8" fill="none" stroke-linecap="round" opacity="0.5"/>
    <path d="M72.2,42.3 L74.3,40.2 L76.4,38.1 L78.6,36.2 L80.9,34.4 L83.2,32.8 L85.5,31.3 L87.9,30.0 L90.3,28.8 L92.7,27.7 L95.1,26.8 L97.6,26.1 L100.0,25.5 L102.4,25.1 L104.9,24.8 L107.3,24.7 L109.7,24.8 L112.1,25.0 L114.5,25.4" stroke="#cc8090" stroke-width="0.8" fill="none" stroke-linecap="round" opacity="0.5"/>
    <path d="M114.5,25.4 L116.8,25.9 L119.1,26.6 L121.4,27.5 L123.6,28.5 L125.7,29.6 L127.8,30.9" stroke="#cc8090" stroke-width="0.5599999999999999" fill="none" stroke-linecap="round" opacity="0.12"/>
    <path d="M127.8,30.9 L124.8,30.1 L121.7,29.5 L118.5,28.9 L115.3,28.6 L112.1,28.4 L108.8,28.3 L105.5,28.4 L102.2,28.6 L98.9,29.0 L95.7,29.6 L92.4,30.3 L89.1,31.1 L85.9,32.1 L82.6,33.3 L79.5,34.5 L76.3,36.0 L73.3,37.5 L70.2,39.2 L67.3,41.0 L64.4,43.0 L61.6,45.0 L58.8,47.2 L56.2,49.5 L53.6,51.9" stroke="#cc8090" stroke-width="0.5599999999999999" fill="none" stroke-linecap="round" opacity="0.12"/>
    <path d="M72.2,42.3 L70.4,41.2 L68.8,40.3 L67.2,39.4 L65.7,38.7 L64.2,38.2 L62.9,37.7 L61.6,37.4 L60.4,37.2 L59.2,37.2 L58.2,37.3 L57.2,37.5 L56.4,37.8 L55.6,38.3" stroke="#cc8090" stroke-width="0.8" fill="none" stroke-linecap="round" opacity="0.5"/>
    <path d="M55.6,38.3 L54.9,38.9 L54.4,39.7 L53.9,40.6 L53.5,41.6 L53.2,42.7 L53.0,43.9 L53.0,45.3 L53.0,46.8 L53.1,48.4 L53.3,50.1 L53.6,51.9" stroke="#cc8090" stroke-width="0.5599999999999999" fill="none" stroke-linecap="round" opacity="0.12"/>
    <path d="M53.6,51.9 L50.9,53.2 L48.4,54.7 L45.9,56.2 L43.5,57.9 L41.3,59.6 L39.2,61.4 L37.2,63.3 L35.4,65.3 L33.7,67.3 L32.1,69.5 L30.7,71.6 L29.4,73.9 L28.3,76.2 L27.3,78.5 L26.5,80.9 L25.8,83.4 L25.3,85.8" stroke="#cc8090" stroke-width="0.5599999999999999" fill="none" stroke-linecap="round" opacity="0.12"/>
    <path d="M25.3,85.8 L25.0,88.3 L24.8,90.9 L24.8,93.4 L24.9,96.0 L25.2,98.5 L25.7,101.1 L26.3,103.7" stroke="#cc8090" stroke-width="0.8" fill="none" stroke-linecap="round" opacity="0.5"/>
    <path d="M72.2,42.3 L69.0,43.9 L66.0,45.6 L63.0,47.4 L60.1,49.4 L57.2,51.4 L54.5,53.5 L51.9,55.8 L49.3,58.1 L46.9,60.5 L44.6,63.0 L42.4,65.6 L40.3,68.3 L38.4,71.0 L36.6,73.8 L34.9,76.6 L33.3,79.5 L31.9,82.4 L30.7,85.4 L29.6,88.4 L28.6,91.5 L27.8,94.5 L27.1,97.6 L26.6,100.6 L26.3,103.7" stroke="#cc8090" stroke-width="0.8" fill="none" stroke-linecap="round" opacity="0.5"/>
    <path d="M26.3,103.7 L27.2,104.4 L28.3,105.0 L29.6,105.7 L30.9,106.3 L32.5,106.9 L34.2,107.5 L36.0,108.1 L37.9,108.7 L40.0,109.3 L42.3,109.8 L44.6,110.3 L47.1,110.8 L49.6,111.3 L52.3,111.8 L55.1,112.2 L58.0,112.6 L60.9,112.9 L64.0,113.3 L67.1,113.6 L70.3,113.9 L73.5,114.2 L76.9,114.4 L80.2,114.6 L83.6,114.7" stroke="#cc8090" stroke-width="0.8" fill="none" stroke-linecap="round" opacity="0.5"/>
    <path d="M146.4,69.8 L149.1,70.3 L151.6,70.9 L154.1,71.6 L156.5,72.3 L158.7,73.1 L160.8,73.9 L162.8,74.8 L164.6,75.8 L166.3,76.8 L167.9,77.8 L169.3,78.9 L170.6,80.1 L171.7,81.3 L172.7,82.5 L173.5,83.7 L174.2,85.0 L174.7,86.4 L175.0,87.7 L175.2,89.1" stroke="#cc8090" stroke-width="0.8" fill="none" stroke-linecap="round" opacity="0.5"/>
    <path d="M175.2,89.1 L175.2,90.5 L175.1,91.9 L174.8,93.4 L174.3,94.8 L173.7,96.3" stroke="#cc8090" stroke-width="0.5599999999999999" fill="none" stroke-linecap="round" opacity="0.12"/>
    <path d="M127.8,30.9 L131.0,32.4 L134.0,34.0 L137.0,35.8 L139.9,37.7 L142.8,39.7 L145.5,41.9 L148.1,44.2 L150.7,46.6 L153.1,49.1 L155.4,51.7 L157.6,54.4 L159.7,57.2 L161.6,60.2 L163.4,63.2 L165.1,66.2 L166.7,69.4 L168.1,72.6 L169.3,75.9 L170.4,79.2 L171.4,82.6 L172.2,86.0 L172.9,89.4 L173.4,92.8 L173.7,96.3" stroke="#cc8090" stroke-width="0.5599999999999999" fill="none" stroke-linecap="round" opacity="0.12"/>
    <path d="M146.4,148.1 L144.4,147.7 L142.4,147.2 L140.2,146.6 L138.0,145.9 L135.7,145.1 L133.3,144.2 L130.8,143.2 L128.3,142.1 L125.7,141.0 L123.1,139.7 L120.4,138.4 L117.6,136.9 L114.9,135.4 L112.1,133.9 L109.2,132.2 L106.4,130.5 L103.5,128.7 L100.7,126.9 L97.8,125.0 L94.9,123.0 L92.1,121.0 L89.2,119.0 L86.4,116.9 L83.6,114.7" stroke="#cc8090" stroke-width="0.8" fill="none" stroke-linecap="round" opacity="0.5"/>
    <path d="M146.4,148.1 L147.6,145.4 L148.8,142.6 L149.9,139.7 L150.8,136.7 L151.7,133.6 L152.4,130.5 L153.1,127.3 L153.6,124.0 L154.0,120.7 L154.3,117.3 L154.5,113.9 L154.5,110.5 L154.5,107.1 L154.3,103.6 L154.0,100.1 L153.6,96.7 L153.1,93.2 L152.4,89.8 L151.7,86.3 L150.8,82.9 L149.9,79.6 L148.8,76.3 L147.6,73.0 L146.4,69.8" stroke="#cc8090" stroke-width="0.8" fill="none" stroke-linecap="round" opacity="0.5"/>
    <path d="M72.2,169.1 L69.0,167.6 L66.0,166.0 L63.0,164.2 L60.1,162.3 L57.2,160.3 L54.5,158.1 L51.9,155.8 L49.3,153.4 L46.9,150.9 L44.6,148.3 L42.4,145.6 L40.3,142.8 L38.4,139.8 L36.6,136.8 L34.9,133.8 L33.3,130.6 L31.9,127.4 L30.7,124.1 L29.6,120.8 L28.6,117.4 L27.8,114.0 L27.1,110.6 L26.6,107.2 L26.3,103.7" stroke="#cc8090" stroke-width="0.8" fill="none" stroke-linecap="round" opacity="0.5"/>
    <path d="M72.2,169.1 L72.0,168.1 L71.9,167.1 L71.8,165.9 L71.8,164.6 L71.9,163.1 L72.0,161.5 L72.2,159.8 L72.5,157.9 L72.8,155.9 L73.1,153.8 L73.5,151.6 L74.0,149.3 L74.5,146.8 L75.1,144.3 L75.8,141.7 L76.5,138.9 L77.2,136.1 L78.0,133.3 L78.8,130.3 L79.7,127.3 L80.6,124.2 L81.6,121.1 L82.6,117.9 L83.6,114.7" stroke="#cc8090" stroke-width="0.8" fill="none" stroke-linecap="round" opacity="0.5"/>
    <path d="M53.6,130.2 L52.4,127.0 L51.2,123.7 L50.1,120.4 L49.2,117.1 L48.3,113.7 L47.6,110.2 L46.9,106.8 L46.4,103.3 L46.0,99.9 L45.7,96.4 L45.5,92.9 L45.5,89.5 L45.5,86.1 L45.7,82.7 L46.0,79.3 L46.4,76.0 L46.9,72.7 L47.6,69.5 L48.3,66.4 L49.2,63.3 L50.1,60.3 L51.2,57.4 L52.4,54.6 L53.6,51.9" stroke="#cc8090" stroke-width="0.5599999999999999" fill="none" stroke-linecap="round" opacity="0.12"/>
    <path d="M53.6,130.2 L50.9,129.7 L48.4,129.1 L45.9,128.4 L43.5,127.7 L41.3,126.9 L39.2,126.1 L37.2,125.2 L35.4,124.2 L33.7,123.2 L32.1,122.2 L30.7,121.1 L29.4,119.9 L28.3,118.7 L27.3,117.5 L26.5,116.3 L25.8,115.0 L25.3,113.6 L25.0,112.3 L24.8,110.9" stroke="#cc8090" stroke-width="0.5599999999999999" fill="none" stroke-linecap="round" opacity="0.12"/>
    <path d="M24.8,110.9 L24.8,109.5 L24.9,108.1 L25.2,106.6 L25.7,105.2 L26.3,103.7" stroke="#cc8090" stroke-width="0.8" fill="none" stroke-linecap="round" opacity="0.5"/>
    <path d="M127.8,30.9 L128.0,31.9 L128.1,32.9 L128.2,34.1 L128.2,35.4 L128.1,36.9 L128.0,38.5 L127.8,40.2 L127.5,42.1 L127.2,44.1 L126.9,46.2 L126.5,48.4 L126.0,50.7 L125.5,53.2 L124.9,55.7 L124.2,58.3 L123.5,61.1 L122.8,63.9 L122.0,66.7 L121.2,69.7 L120.3,72.7 L119.4,75.8 L118.4,78.9 L117.4,82.1 L116.4,85.3" stroke="#cc8090" stroke-width="0.5599999999999999" fill="none" stroke-linecap="round" opacity="0.12"/>
    <path d="M53.6,51.9 L55.6,52.3 L57.6,52.8 L59.8,53.4 L62.0,54.1 L64.3,54.9 L66.7,55.8 L69.2,56.8 L71.7,57.9 L74.3,59.0 L76.9,60.3 L79.6,61.6 L82.4,63.1 L85.1,64.6 L87.9,66.1 L90.8,67.8 L93.6,69.5 L96.5,71.3 L99.3,73.1 L102.2,75.0 L105.1,77.0 L107.9,79.0 L110.8,81.0 L113.6,83.1 L116.4,85.3" stroke="#cc8090" stroke-width="0.5599999999999999" fill="none" stroke-linecap="round" opacity="0.12"/>
    <path d="M127.8,157.7 L131.0,156.1 L134.0,154.4 L137.0,152.6 L139.9,150.6 L142.8,148.6 L145.5,146.5 L148.1,144.2 L150.7,141.9 L153.1,139.5 L155.4,137.0 L157.6,134.4 L159.7,131.7 L161.6,129.0 L163.4,126.2 L165.1,123.4 L166.7,120.5 L168.1,117.6 L169.3,114.6 L170.4,111.6 L171.4,108.5 L172.2,105.5 L172.9,102.4 L173.4,99.4 L173.7,96.3" stroke="#cc8090" stroke-width="0.5599999999999999" fill="none" stroke-linecap="round" opacity="0.12"/>
    <path d="M146.4,148.1 L149.1,146.8 L151.6,145.3 L154.1,143.8 L156.5,142.1 L158.7,140.4 L160.8,138.6 L162.8,136.7 L164.6,134.7 L166.3,132.7 L167.9,130.5 L169.3,128.4 L170.6,126.1 L171.7,123.8 L172.7,121.5 L173.5,119.1 L174.2,116.6 L174.7,114.2" stroke="#cc8090" stroke-width="0.8" fill="none" stroke-linecap="round" opacity="0.5"/>
    <path d="M174.7,114.2 L175.0,111.7 L175.2,109.1 L175.2,106.6 L175.1,104.0 L174.8,101.5 L174.3,98.9 L173.7,96.3" stroke="#cc8090" stroke-width="0.5599999999999999" fill="none" stroke-linecap="round" opacity="0.12"/>
    <path d="M127.8,157.7 L129.6,158.8 L131.2,159.7 L132.8,160.6 L134.3,161.3 L135.8,161.8 L137.1,162.3 L138.4,162.6 L139.6,162.8 L140.8,162.8 L141.8,162.7 L142.8,162.5 L143.6,162.2 L144.4,161.7" stroke="#cc8090" stroke-width="0.5599999999999999" fill="none" stroke-linecap="round" opacity="0.12"/>
    <path d="M144.4,161.7 L145.1,161.1 L145.6,160.3 L146.1,159.4 L146.5,158.4 L146.8,157.3 L147.0,156.1 L147.0,154.7 L147.0,153.2 L146.9,151.6 L146.7,149.9 L146.4,148.1" stroke="#cc8090" stroke-width="0.8" fill="none" stroke-linecap="round" opacity="0.5"/>
    <path d="M72.2,169.1 L75.2,169.9 L78.3,170.5 L81.5,171.1 L84.7,171.4 L87.9,171.6 L91.2,171.7 L94.5,171.6 L97.8,171.4 L101.1,171.0 L104.3,170.4 L107.6,169.7 L110.9,168.9 L114.1,167.9 L117.4,166.7 L120.5,165.5 L123.7,164.0 L126.7,162.5 L129.8,160.8 L132.7,159.0 L135.6,157.0 L138.4,155.0 L141.2,152.8 L143.8,150.5 L146.4,148.1" stroke="#cc8090" stroke-width="0.8" fill="none" stroke-linecap="round" opacity="0.5"/>
    <path d="M72.2,169.1 L74.3,170.4 L76.4,171.5 L78.6,172.5 L80.9,173.4 L83.2,174.1 L85.5,174.6 L87.9,175.0" stroke="#cc8090" stroke-width="0.8" fill="none" stroke-linecap="round" opacity="0.5"/>
    <path d="M87.9,175.0 L90.3,175.2 L92.7,175.3 L95.1,175.2 L97.6,174.9 L100.0,174.5 L102.4,173.9 L104.9,173.2 L107.3,172.3 L109.7,171.2 L112.1,170.0 L114.5,168.7 L116.8,167.2 L119.1,165.6 L121.4,163.8 L123.6,161.9 L125.7,159.8 L127.8,157.7" stroke="#cc8090" stroke-width="0.5599999999999999" fill="none" stroke-linecap="round" opacity="0.12"/>
    <path d="M72.2,169.1 L70.4,168.9 L68.8,168.7 L67.2,168.3 L65.7,167.7 L64.2,167.1" stroke="#cc8090" stroke-width="0.8" fill="none" stroke-linecap="round" opacity="0.5"/>
    <path d="M64.2,167.1 L62.9,166.2 L61.6,165.2 L60.4,164.1 L59.2,162.9 L58.2,161.5 L57.2,160.0 L56.4,158.3 L55.6,156.6 L54.9,154.7 L54.4,152.7 L53.9,150.6 L53.5,148.4 L53.2,146.0 L53.0,143.6 L53.0,141.1 L53.0,138.5 L53.1,135.8 L53.3,133.0 L53.6,130.2" stroke="#cc8090" stroke-width="0.5599999999999999" fill="none" stroke-linecap="round" opacity="0.12"/>
    <path d="M127.8,157.7 L124.8,157.8 L121.7,157.9 L118.5,157.8 L115.3,157.6 L112.1,157.3 L108.8,156.8 L105.5,156.3 L102.2,155.6 L98.9,154.8 L95.7,153.8 L92.4,152.8 L89.1,151.7 L85.9,150.4 L82.6,149.0 L79.5,147.6 L76.3,146.0 L73.3,144.3 L70.2,142.6 L67.3,140.7 L64.4,138.8 L61.6,136.7 L58.8,134.6 L56.2,132.5 L53.6,130.2" stroke="#cc8090" stroke-width="0.5599999999999999" fill="none" stroke-linecap="round" opacity="0.12"/>
    <path d="M53.6,130.2 L55.6,128.7 L57.6,127.2 L59.8,125.6 L62.0,123.9 L64.3,122.2 L66.7,120.4 L69.2,118.6 L71.7,116.8 L74.3,114.9 L76.9,113.0 L79.6,111.1 L82.4,109.1 L85.1,107.1 L87.9,105.1 L90.8,103.1 L93.6,101.1 L96.5,99.1 L99.3,97.1 L102.2,95.1 L105.1,93.1 L107.9,91.1 L110.8,89.1 L113.6,87.2 L116.4,85.3" stroke="#cc8090" stroke-width="0.5599999999999999" fill="none" stroke-linecap="round" opacity="0.12"/>
    <path d="M127.8,157.7 L128.0,155.5 L128.1,153.2 L128.2,150.9 L128.2,148.4 L128.1,145.8 L128.0,143.1 L127.8,140.3 L127.5,137.4 L127.2,134.5 L126.9,131.5 L126.5,128.4 L126.0,125.2 L125.5,122.0 L124.9,118.8 L124.2,115.5 L123.5,112.2 L122.8,108.8 L122.0,105.4 L121.2,102.1 L120.3,98.7 L119.4,95.3 L118.4,91.9 L117.4,88.6 L116.4,85.3" stroke="#cc8090" stroke-width="0.5599999999999999" fill="none" stroke-linecap="round" opacity="0.12"/>
    <path d="M116.4,85.3 L119.8,85.4 L123.1,85.6 L126.5,85.8 L129.7,86.1 L132.9,86.4 L136.0,86.7 L139.1,87.1 L142.0,87.4 L144.9,87.8 L147.7,88.2 L150.4,88.7 L152.9,89.2 L155.4,89.7 L157.7,90.2 L160.0,90.7 L162.1,91.3 L164.0,91.9 L165.8,92.5 L167.5,93.1 L169.1,93.7 L170.4,94.3 L171.7,95.0 L172.8,95.6 L173.7,96.3" stroke="#cc8090" stroke-width="0.5599999999999999" fill="none" stroke-linecap="round" opacity="0.12"/>
  <circle cx="72.2" cy="42.3" r="1.5" fill="#cc8090" opacity="0.3"/>
    <circle cx="127.8" cy="30.9" r="1.5" fill="#cc8090" opacity="0.08"/>
    <circle cx="72.2" cy="169.1" r="1.5" fill="#cc8090" opacity="0.3"/>
    <circle cx="127.8" cy="157.7" r="1.5" fill="#cc8090" opacity="0.08"/>
    <circle cx="146.4" cy="148.1" r="1.5" fill="#cc8090" opacity="0.3"/>
    <circle cx="146.4" cy="69.8" r="1.5" fill="#cc8090" opacity="0.3"/>
    <circle cx="53.6" cy="130.2" r="1.5" fill="#cc8090" opacity="0.08"/>
    <circle cx="53.6" cy="51.9" r="1.5" fill="#cc8090" opacity="0.08"/>
    <circle cx="116.4" cy="85.3" r="1.5" fill="#cc8090" opacity="0.08"/>
    <circle cx="173.7" cy="96.3" r="1.5" fill="#cc8090" opacity="0.08"/>
    <circle cx="26.3" cy="103.7" r="1.5" fill="#cc8090" opacity="0.3"/>
    <circle cx="83.6" cy="114.7" r="1.5" fill="#cc8090" opacity="0.3"/>
  <path d="M83.6,114.7 L85.7,116.3 L87.8,117.9 L89.9,119.5 L92.1,121.0 L94.2,122.5 L96.3,124.0 L98.5,125.4 L100.7,126.9 L102.8,128.3 L105.0,129.6 L107.1,130.9 L109.2,132.2 L111.4,133.5 L113.5,134.7 L115.6,135.8 L117.6,136.9 L119.7,138.0 L121.7,139.0 L123.7,140.0 L125.7,141.0 L127.6,141.9 L129.6,142.7 L131.4,143.5 L133.3,144.2 L135.1,144.9 L136.8,145.5 L138.5,146.1 L140.2,146.6 L141.8,147.1 L143.4,147.5 L144.9,147.8 L146.4,148.1" stroke="#cc8090" stroke-width="3" fill="none" stroke-linecap="round" opacity="1"/>
    <path d="M83.6,114.7 L82.8,112.2 L82.1,109.7 L81.3,107.2 L80.6,104.7 L79.9,102.2 L79.2,99.6 L78.6,97.1 L78.0,94.6 L77.4,92.0 L76.8,89.5 L76.3,87.0 L75.8,84.5 L75.3,82.0 L74.8,79.6 L74.4,77.2 L74.0,74.8 L73.6,72.4 L73.3,70.1 L73.0,67.8 L72.8,65.5 L72.5,63.3 L72.3,61.1 L72.2,59.0 L72.0,56.9 L71.9,54.9 L71.9,52.9 L71.8,51.0 L71.8,49.1 L71.9,47.3 L71.9,45.6 L72.0,43.9 L72.2,42.3" stroke="#cc8090" stroke-width="3" fill="none" stroke-linecap="round" opacity="1"/>
    <path d="M83.6,114.7 L85.7,113.3 L87.8,111.9 L89.9,110.4 L92.1,108.9 L94.2,107.4 L96.3,105.9 L98.5,104.4 L100.7,102.9 L102.8,101.4 L105.0,99.9 L107.1,98.4 L109.2,96.9 L111.4,95.4 L113.5,93.9 L115.6,92.4 L117.6,90.9 L119.7,89.4 L121.7,88.0 L123.7,86.5 L125.7,85.1 L127.6,83.7 L129.6,82.3 L131.4,80.9 L133.3,79.6 L135.1,78.2 L136.8,76.9 L138.5,75.7 L140.2,74.4 L141.8,73.2 L143.4,72.0 L144.9,70.9 L146.4,69.8" stroke="#cc8090" stroke-width="3" fill="none" stroke-linecap="round" opacity="1"/>
    <path d="M146.4,69.8 L147.3,72.2 L148.2,74.6 L149.1,77.1 L149.9,79.6 L150.6,82.1 L151.3,84.6 L151.9,87.2 L152.4,89.8 L152.9,92.3 L153.3,94.9 L153.7,97.5 L154.0,100.1 L154.2,102.7 L154.4,105.3 L154.5,107.9 L154.5,110.5 L154.5,113.1 L154.4,115.6 L154.2,118.2 L154.0,120.7 L153.7,123.2 L153.3,125.6 L152.9,128.1 L152.4,130.5 L151.9,132.8 L151.3,135.2 L150.6,137.4 L149.9,139.7 L149.1,141.9 L148.2,144.0 L147.3,146.1 L146.4,148.1" stroke="#cc8090" stroke-width="3" fill="none" stroke-linecap="round" opacity="1"/>
    <path d="M146.4,69.8 L144.5,68.1 L142.5,66.4 L140.5,64.8 L138.4,63.3 L136.3,61.7 L134.2,60.3 L132.0,58.8 L129.8,57.4 L127.5,56.1 L125.2,54.8 L122.9,53.6 L120.5,52.4 L118.2,51.3 L115.8,50.3 L113.3,49.3 L110.9,48.3 L108.4,47.5 L106.0,46.7 L103.5,45.9 L101.1,45.2 L98.6,44.6 L96.1,44.1 L93.7,43.6 L91.2,43.2 L88.7,42.8 L86.3,42.6 L83.9,42.3 L81.5,42.2 L79.1,42.1 L76.8,42.1 L74.5,42.2 L72.2,42.3" stroke="#cc8090" stroke-width="3" fill="none" stroke-linecap="round" opacity="1"/>
  
  <circle cx="83.6" cy="114.7" r="10" fill="#1a1216" stroke="#cc8090" stroke-width="2.5"/>
    <circle cx="83.6" cy="114.7" r="3.5" fill="#cc8090"/>
  <circle cx="146.4" cy="69.8" r="10" fill="#1a1216" stroke="#cc8090" stroke-width="2.5"/>
    <circle cx="146.4" cy="69.8" r="3.5" fill="#cc8090"/>
  <circle cx="72.2" cy="42.3" r="10" fill="#1a1216" stroke="#cc8090" stroke-width="2.5"/>
    <circle cx="72.2" cy="42.3" r="3.5" fill="#cc8090"/>
  <circle cx="146.4" cy="148.1" r="10" fill="#1a1216" stroke="#cc8090" stroke-width="2.5"/>
    <circle cx="146.4" cy="148.1" r="3.5" fill="#cc8090"/>
</svg>